<?xml version="1.0" encoding="utf-8"?>
<!-- Generator: Adobe Illustrator 25.1.0, SVG Export Plug-In . SVG Version: 6.00 Build 0)  -->
<svg id="sw-js-blob-svg" viewBox="0 0 100 100" xmlns="http://www.w3.org/2000/svg" version="1.1">                    <defs>                         <linearGradient id="sw-gradient" x1="0" x2="1" y1="1" y2="0">                            <stop id="stop1" stop-color="rgba(255, 253.962, 253.47, 1)" offset="0%"></stop>                            <stop id="stop2" stop-color="rgba(255, 255, 255, 1)" offset="100%"></stop>                        </linearGradient>                    </defs>                <path fill="none" d="M12,-16.3C17.2,-17.9,24.1,-17.9,24.3,-14.9C24.4,-11.9,17.8,-6,14.6,-1.8C11.4,2.3,11.7,4.6,10.5,5.7C9.3,6.9,6.6,6.8,4.6,12.9C2.6,18.9,1.3,30.9,-0.4,31.7C-2.2,32.4,-4.4,21.9,-6.9,16.2C-9.4,10.5,-12.2,9.6,-16.1,7.7C-20,5.8,-25,2.9,-22.8,1.2C-20.7,-0.4,-11.4,-0.8,-9.5,-6.3C-7.7,-11.7,-13.3,-22.1,-12.9,-23.3C-12.5,-24.5,-6.3,-16.5,-1.4,-14C3.4,-11.6,6.9,-14.7,12,-16.3Z" width="100%" height="100%" transform="translate(50 50)" stroke-width="1" style="transition: all 0.3s ease 0s;" stroke="url(#sw-gradient)"></path>              </svg>
